<?xml version="1.0" encoding="UTF-8" standalone="no"?>
<svg
   width="4.8000031mm"
   height="5.7968979mm"
   viewBox="0 0 4.8000031 5.7968979"
   version="1.1"
   id="svg8"
   inkscape:version="1.0.1 (3bc2e813f5, 2020-09-07)"
   sodipodi:docname="sigill_PV (2022_12_20 17_46_41 UTC).svg"
   inkscape:export-filename="..\..\Documents\KiCad\rugged_pico\extra\genna.svg"
   inkscape:export-xdpi="3250.2163"
   inkscape:export-ydpi="3250.2163"
   xmlns:inkscape="http://www.inkscape.org/namespaces/inkscape"
   xmlns:sodipodi="http://sodipodi.sourceforge.net/DTD/sodipodi-0.dtd"
   xmlns="http://www.w3.org/2000/svg"
   xmlns:svg="http://www.w3.org/2000/svg"
   xmlns:rdf="http://www.w3.org/1999/02/22-rdf-syntax-ns#"
   xmlns:cc="http://creativecommons.org/ns#"
   xmlns:dc="http://purl.org/dc/elements/1.1/">
  <defs
     id="defs2" />
  <sodipodi:namedview
     id="base"
     pagecolor="#ffffff"
     bordercolor="#666666"
     borderopacity="1.0"
     inkscape:pageopacity="0.0"
     inkscape:pageshadow="2"
     inkscape:zoom="5.97973"
     inkscape:cx="-154.51397"
     inkscape:cy="75.971021"
     inkscape:document-units="mm"
     inkscape:current-layer="layer2"
     inkscape:document-rotation="0"
     showgrid="false"
     inkscape:window-width="1920"
     inkscape:window-height="1057"
     inkscape:window-x="-8"
     inkscape:window-y="-4"
     inkscape:window-maximized="1"
     inkscape:showpageshadow="2"
     inkscape:pagecheckerboard="0"
     inkscape:deskcolor="#d1d1d1" />
  <metadata
     id="metadata5">
    <rdf:RDF>
      <cc:Work
         rdf:about="">
        <dc:format>image/svg+xml</dc:format>
        <dc:type
           rdf:resource="http://purl.org/dc/dcmitype/StillImage" />
        <dc:title />
      </cc:Work>
    </rdf:RDF>
  </metadata>
  <g
     inkscape:groupmode="layer"
     id="layer2"
     inkscape:label="Lager 2"
     style="display:inline"
     transform="translate(104.22372,-33.510718)">
    <g
       id="g2418"
       inkscape:export-filename="..\..\Documents\KiCad\rugged_pico\extra\dact.svg"
       inkscape:export-xdpi="3250.2163"
       inkscape:export-ydpi="3250.2163"
       transform="matrix(0.27981228,0,0,0.27981228,-75.03685,24.157502)">
      <path
         style="fill:#000000;fill-opacity:1;fill-rule:nonzero;stroke:none;stroke-width:0.00662914;stroke-linecap:round;stroke-linejoin:round;stroke-miterlimit:4;stroke-dasharray:none;paint-order:stroke fill markers"
         d="m -95.001749,41.45868 c -0.08231,0.01378 -0.134866,0.08706 -0.196308,0.136689 -0.112209,0.09933 -0.211609,0.229084 -0.363851,0.267396 -0.09257,0.02902 -0.192627,0.02601 -0.287839,0.01394 -0.147765,-0.02881 -0.278656,-0.110874 -0.387865,-0.211987 -0.05444,-0.05547 -0.154945,-0.06095 -0.20478,0.0033 -0.04488,0.05553 -0.04595,0.132426 -0.06316,0.199279 -0.02668,0.153767 -0.02541,0.311925 -0.0096,0.466812 0.05002,0.387294 0.19478,0.755076 0.360106,1.106239 0.02913,0.07276 0.122071,0.116691 0.192558,0.07479 0.07928,-0.03831 0.08281,-0.137922 0.109704,-0.211034 0.07763,-0.25863 0.141993,-0.519914 0.222386,-0.776557 -0.0027,-0.02492 0.03875,-0.02604 0.03529,-2.38e-4 0.09131,0.304694 0.168481,0.615735 0.264236,0.917117 0.0325,0.08432 0.152212,0.114215 0.217862,0.05069 0.05629,-0.05912 0.07709,-0.142245 0.111666,-0.214537 0.130003,-0.315082 0.22638,-0.647991 0.249893,-0.989193 0.008,-0.187759 0.008,-0.378931 -0.04425,-0.561125 -0.02474,-0.08087 -0.03787,-0.172607 -0.09848,-0.235898 -0.02899,-0.02676 -0.06863,-0.03835 -0.107577,-0.03567 z"
         id="path1174-7" />
      <path
         style="fill:#000000;fill-opacity:1;fill-rule:nonzero;stroke:none;stroke-width:0.0132582;stroke-linecap:round;stroke-linejoin:round;stroke-miterlimit:4;stroke-dasharray:none;paint-order:stroke fill markers"
         d="m -95.628732,46.330477 c -0.28263,0.03616 -0.54573,0.20361 -0.689413,0.451382 -0.05142,0.10107 -0.147785,0.209579 -0.109325,0.329737 0.05686,0.114122 0.203242,0.121335 0.310439,0.159964 0.29827,0.08454 0.615457,0.09183 0.917512,0.02249 0.127378,-0.03239 0.264485,-0.05568 0.374205,-0.131493 0.09037,-0.09454 0.0043,-0.220594 -0.04305,-0.314423 -0.103611,-0.188687 -0.258177,-0.352991 -0.458726,-0.438018 -0.0947,-0.04294 -0.196722,-0.0786 -0.301644,-0.07964 z"
         id="path1161-3" />
      <path
         style="fill:#000000;fill-opacity:1;fill-rule:nonzero;stroke:none;stroke-width:0.0132582;stroke-linecap:round;stroke-linejoin:round;stroke-miterlimit:4;stroke-dasharray:none;paint-order:stroke fill markers"
         d="m -90.557424,40.329457 c -0.117969,0.03745 -0.161245,0.170611 -0.224771,0.264967 -0.177073,0.309824 -0.264808,0.668261 -0.246319,1.02494 0.01098,0.119087 2.64e-4,0.256165 0.07768,0.355248 0.07558,0.07946 0.205274,0.02861 0.24085,-0.06548 0.244999,-0.434393 0.34244,-0.942581 0.319204,-1.437947 -0.0021,-0.08812 -0.07785,-0.156316 -0.166648,-0.141732 z"
         id="path1151-1" />
      <path
         style="fill:#000000;fill-opacity:1;fill-rule:nonzero;stroke:none;stroke-width:0.0132582;stroke-linecap:round;stroke-linejoin:round;stroke-miterlimit:4;stroke-dasharray:none;paint-order:stroke fill markers"
         d="m -89.037236,36.447916 c -0.109413,0.04306 -0.171027,0.15588 -0.2506,0.236967 -0.405562,0.476234 -0.628254,1.079949 -0.732192,1.690491 -0.03431,0.218115 -0.07573,0.43773 -0.07899,0.658691 0.008,0.124695 0.183507,0.170834 0.255283,0.07059 0.162799,-0.229989 0.286264,-0.486093 0.410136,-0.738622 0.264607,-0.563086 0.456941,-1.161195 0.564703,-1.773875 0.0074,-0.08977 -0.08003,-0.166145 -0.168338,-0.144243 z"
         id="path1153-2" />
      <path
         style="fill:#000000;fill-opacity:1;fill-rule:nonzero;stroke:none;stroke-width:0.0132582;stroke-linecap:round;stroke-linejoin:round;stroke-miterlimit:4;stroke-dasharray:none;paint-order:stroke fill markers"
         d="m -101.03542,40.106948 c -0.10385,0.0089 -0.1409,0.121983 -0.12677,0.211404 0.0121,0.357183 0.0452,0.719 0.17389,1.055508 0.0622,0.155832 0.12026,0.322202 0.23362,0.448675 0.0856,0.07206 0.21682,0.0046 0.23035,-0.100579 0.10315,-0.423939 0.0441,-0.886192 -0.17722,-1.263967 -0.0735,-0.11952 -0.13296,-0.26366 -0.25779,-0.338368 -0.0239,-0.01087 -0.05,-0.01458 -0.0761,-0.01267 z"
         id="path1155-2" />
      <path
         style="fill:#000000;fill-opacity:1;fill-rule:nonzero;stroke:none;stroke-width:0.0132582;stroke-linecap:round;stroke-linejoin:round;stroke-miterlimit:4;stroke-dasharray:none;paint-order:stroke fill markers"
         d="m -102.54633,36.257697 c -0.11302,0.0045 -0.15843,0.13449 -0.12703,0.229272 0.17159,0.887143 0.51455,1.741093 1.00661,2.498907 0.0556,0.107517 0.23516,0.08805 0.25686,-0.03435 0.017,-0.193357 -0.0173,-0.388231 -0.0352,-0.580824 -0.0751,-0.634164 -0.2836,-1.269076 -0.69816,-1.764522 -0.10479,-0.118504 -0.20425,-0.249393 -0.33769,-0.336531 -0.0204,-0.0097 -0.0431,-0.01249 -0.0654,-0.01196 z"
         id="path1157-2" />
      <path
         style="fill:#010001;fill-opacity:1;fill-rule:nonzero;stroke:none;stroke-width:0.00468749;stroke-linecap:round;stroke-linejoin:round;stroke-miterlimit:4;stroke-dasharray:none;paint-order:stroke fill markers"
         d="m -95.529569,50.828338 c -0.06606,0.0031 -0.117627,0.05809 -0.130719,0.120618 -0.05882,0.189534 -0.0982,0.393719 -0.05325,0.590603 0.02327,0.09251 0.06745,0.181253 0.131326,0.252299 0.05359,0.05218 0.148253,0.04613 0.195116,-0.01212 0.09853,-0.125968 0.149413,-0.289224 0.132292,-0.448964 -0.0148,-0.156974 -0.07815,-0.304948 -0.153747,-0.441563 -0.02622,-0.03977 -0.0735,-0.06344 -0.121018,-0.06087 z"
         id="path1118-5" />
      <path
         style="fill:#000000;fill-opacity:1;fill-rule:nonzero;stroke:none;stroke-width:0.00468749;stroke-linecap:round;stroke-linejoin:round;stroke-miterlimit:4;stroke-dasharray:none;paint-order:stroke fill markers"
         d="m -99.664629,50.561686 c -0.0622,0.0077 -0.108213,0.06092 -0.120614,0.120266 -0.04922,0.185986 -0.08066,0.377558 -0.07938,0.570373 -0.0074,0.357486 0.119294,0.713565 0.34322,0.991399 0.07435,0.09165 0.155043,0.178829 0.243284,0.257159 0.06444,0.04992 0.169487,0.02379 0.201467,-0.05162 0.0296,-0.0569 0.0025,-0.119883 -0.02334,-0.1724 -0.167836,-0.397401 -0.289352,-0.814162 -0.362155,-1.239356 -0.02209,-0.119875 -0.03494,-0.241178 -0.0521,-0.361725 -0.01187,-0.07062 -0.07852,-0.123105 -0.15037,-0.114093 z"
         id="path1120-8" />
      <path
         style="fill:#010001;fill-opacity:1;fill-rule:nonzero;stroke:none;stroke-width:0.00468749;stroke-linecap:round;stroke-linejoin:round;stroke-miterlimit:4;stroke-dasharray:none;paint-order:stroke fill markers"
         d="m -97.610176,52.664287 c -0.210748,7.94e-4 -0.417947,0.05989 -0.607674,0.148942 -0.0694,0.03363 -0.0977,0.12746 -0.05685,0.193196 0.03054,0.05333 0.09353,0.0654 0.148284,0.07893 0.131532,0.03391 0.26732,0.05407 0.403414,0.04706 0.204826,-1.19e-4 0.407114,-0.05216 0.594311,-0.133106 0.07099,-0.02811 0.109563,-0.118652 0.07279,-0.187285 -0.02639,-0.05712 -0.09032,-0.07521 -0.145891,-0.09068 -0.132172,-0.04095 -0.270085,-0.05977 -0.408389,-0.05706 z"
         id="path1122-5" />
      <path
         style="fill:#000000;fill-opacity:1;fill-rule:nonzero;stroke:none;stroke-width:0.00468749;stroke-linecap:round;stroke-linejoin:round;stroke-miterlimit:4;stroke-dasharray:none;paint-order:stroke fill markers"
         d="m -98.138244,47.813437 c -0.06469,0.01201 -0.106923,0.07269 -0.11435,0.13525 -0.06201,0.366186 -0.0988,0.736568 -0.115174,1.107527 -0.0038,0.244023 -0.0059,0.488265 0.0027,0.7322 0.0254,0.384083 0.06636,0.77116 0.182676,1.139741 0.05119,0.154225 0.11317,0.30784 0.208976,0.440211 0.06092,0.07686 0.132082,0.152789 0.227908,0.184144 0.112927,0.04465 0.239884,0.0019 0.337294,-0.06174 0.05351,-0.03665 0.108235,-0.07474 0.150356,-0.124225 0.04437,-0.06277 0.01885,-0.159991 -0.05163,-0.191428 -0.05515,-0.02545 -0.11938,-0.0094 -0.176341,-0.03055 -0.14901,-0.04373 -0.249585,-0.177638 -0.311674,-0.313118 -0.09992,-0.221613 -0.140832,-0.466664 -0.170509,-0.704316 -0.0166,-0.138872 -0.02695,-0.284083 -0.03451,-0.425005 -0.0096,-0.192223 -0.0091,-0.392592 -0.01003,-0.588841 -7.15e-4,-0.384228 0.01861,-0.764503 0.03649,-1.147839 0.0073,-0.07293 -0.04705,-0.148667 -0.122447,-0.15322 -0.01317,-0.0032 -0.02646,7.93e-4 -0.03972,0.0013 z"
         id="path1127-1" />
      <path
         style="fill:#000000;fill-opacity:1;fill-rule:nonzero;stroke:none;stroke-width:0.00468749;stroke-linecap:round;stroke-linejoin:round;stroke-miterlimit:4;stroke-dasharray:none;paint-order:stroke fill markers"
         d="m -99.088792,48.399077 c -0.06438,0.0098 -0.1009,0.06815 -0.131187,0.119578 -0.103343,0.167587 -0.184927,0.354103 -0.198291,0.552725 -0.005,0.07391 -0.01635,0.162367 0.04361,0.218549 0.05289,0.05295 0.147061,0.04722 0.195091,-0.0096 0.156837,-0.16645 0.238442,-0.393981 0.245587,-0.620771 -1.72e-4,-0.06333 0.01407,-0.131842 -0.01512,-0.190847 -0.02607,-0.05047 -0.08385,-0.07831 -0.139681,-0.06964 z"
         id="path1129-92" />
      <path
         style="fill:#000000;fill-opacity:1;fill-rule:nonzero;stroke:none;stroke-width:0.00468749;stroke-linecap:round;stroke-linejoin:round;stroke-miterlimit:4;stroke-dasharray:none;paint-order:stroke fill markers"
         d="m -96.178609,47.862504 c -0.06763,0.01291 -0.101647,0.07763 -0.133661,0.131445 -0.174522,0.291513 -0.288118,0.617622 -0.341122,0.952844 -0.02166,0.139676 -0.03914,0.280609 -0.04273,0.42196 0.0014,0.07865 0.0801,0.145095 0.157876,0.128889 0.06091,-0.0083 0.09714,-0.06262 0.121596,-0.11367 0.211012,-0.399793 0.351574,-0.838779 0.392535,-1.289846 0.0058,-0.06309 0.02091,-0.137875 -0.02839,-0.188481 -0.02948,-0.03659 -0.08063,-0.05157 -0.126097,-0.04314 z"
         id="path1131-7" />
      <path
         style="fill:#000000;fill-opacity:1;fill-rule:nonzero;stroke:none;stroke-width:0.00468749;stroke-linecap:round;stroke-linejoin:round;stroke-miterlimit:4;stroke-dasharray:none;paint-order:stroke fill markers"
         d="m -95.578105,47.732499 c -0.06674,0.0011 -0.119586,0.05563 -0.13603,0.117565 -0.03448,0.09516 -0.03893,0.2014 -0.01339,0.299198 0.02039,0.07666 0.112816,0.12055 0.184953,0.08756 0.07126,-0.03081 0.09076,-0.112824 0.106268,-0.181338 0.01522,-0.0806 0.01543,-0.167251 -0.01411,-0.24453 -0.02249,-0.04844 -0.07434,-0.08018 -0.127689,-0.07845 z"
         id="path1133-5" />
      <path
         style="fill:#000000;fill-opacity:1;fill-rule:nonzero;stroke:none;stroke-width:0.00468749;stroke-linecap:round;stroke-linejoin:round;stroke-miterlimit:4;stroke-dasharray:none;paint-order:stroke fill markers"
         d="m -95.608303,49.270003 c -0.06989,0.019 -0.09981,0.09056 -0.131032,0.148579 -0.05437,0.104521 -0.0739,0.233519 -0.02309,0.343324 0.02823,0.06122 0.06871,0.118231 0.119011,0.162848 0.0581,0.04205 0.144156,0.02426 0.185308,-0.03315 0.07506,-0.08993 0.138458,-0.202814 0.126954,-0.323945 -0.0092,-0.109654 -0.07956,-0.202996 -0.159398,-0.273688 -0.03297,-0.0258 -0.07741,-0.03381 -0.117749,-0.02397 z"
         id="path1135-5" />
      <path
         style="fill:#000000;fill-opacity:1;fill-rule:nonzero;stroke:none;stroke-width:0.00468749;stroke-linecap:round;stroke-linejoin:round;stroke-miterlimit:4;stroke-dasharray:none;paint-order:stroke fill markers"
         d="m -94.980458,47.855731 c -0.0769,0.0016 -0.138938,0.07686 -0.128998,0.152606 0.02448,0.331293 0.09826,0.658826 0.220846,0.967679 0.05904,0.147061 0.122359,0.293143 0.200665,0.431065 0.03735,0.06311 0.128066,0.08474 0.188494,0.04208 0.05308,-0.03303 0.06791,-0.10025 0.06032,-0.158731 -0.02992,-0.415002 -0.123595,-0.830834 -0.320755,-1.199827 -0.03744,-0.06592 -0.06965,-0.136428 -0.119213,-0.194318 -0.02643,-0.02707 -0.06384,-0.04081 -0.101362,-0.04055 z"
         id="path1137-6" />
      <path
         style="fill:#000000;fill-opacity:1;fill-rule:nonzero;stroke:none;stroke-width:0.00468749;stroke-linecap:round;stroke-linejoin:round;stroke-miterlimit:4;stroke-dasharray:none;paint-order:stroke fill markers"
         d="m -95.567657,52.334785 c -0.07152,0.03293 -0.142202,0.06835 -0.217162,0.09338 -0.159191,0.05712 -0.328771,0.111712 -0.456562,0.229412 -0.04707,0.03963 -0.09964,0.09003 -0.09213,0.157575 0.003,0.06504 0.05917,0.115848 0.121449,0.125852 0.09483,0.02334 0.195574,0.02453 0.291266,0.0057 0.144283,-0.03424 0.264591,-0.127148 0.369441,-0.228063 0.01113,-0.01341 0.02973,-0.02551 0.0443,-0.0093 0.162892,0.120939 0.331853,0.250497 0.535789,0.289859 0.09526,0.01953 0.195466,0.0092 0.288068,-0.01834 0.07353,-0.02482 0.110439,-0.1179 0.07399,-0.186457 -0.04425,-0.07519 -0.108064,-0.138504 -0.178117,-0.189984 -0.157933,-0.109881 -0.353801,-0.131347 -0.531574,-0.193532 -0.06195,-0.01815 -0.116948,-0.05292 -0.176478,-0.07649 -0.02381,-0.0067 -0.04833,-0.0049 -0.07229,5.29e-4 z"
         id="path1139-11" />
      <path
         style="fill:#010001;fill-opacity:1;fill-rule:nonzero;stroke:none;stroke-width:0.00468749;stroke-linecap:round;stroke-linejoin:round;stroke-miterlimit:4;stroke-dasharray:none;paint-order:stroke fill markers"
         d="m -91.351642,50.329069 c -0.06228,0.01215 -0.10477,0.06954 -0.112236,0.130501 -0.06418,0.387556 -0.173384,0.770122 -0.374939,1.109014 -0.09976,0.167603 -0.220194,0.323183 -0.36195,0.457446 -0.196156,0.19612 -0.43485,0.344016 -0.683768,0.463558 -0.05015,0.02201 -0.09678,0.06204 -0.104354,0.119205 -0.0118,0.07618 0.05197,0.152064 0.129156,0.15281 0.0683,-0.0032 0.133816,-0.02708 0.200245,-0.04186 0.39529,-0.103732 0.776388,-0.296955 1.055799,-0.600247 0.223983,-0.23985 0.370535,-0.547613 0.425704,-0.870434 0.04646,-0.266078 0.03641,-0.54038 -0.01373,-0.805119 -0.01103,-0.07144 -0.08218,-0.128625 -0.15484,-0.115205 l -0.0041,2.65e-4 z"
         id="path1141-6" />
      <path
         style="fill:#000000;fill-opacity:1;fill-rule:nonzero;stroke:none;stroke-width:0.00468749;stroke-linecap:round;stroke-linejoin:round;stroke-miterlimit:4;stroke-dasharray:none;paint-order:stroke fill markers"
         d="m -93.204889,47.651772 c -0.06844,0.01416 -0.115449,0.08508 -0.104791,0.153622 0.02659,0.260744 0.05815,0.518951 0.08083,0.779732 0.03757,0.420667 0.06643,0.837102 0.06002,1.259195 -0.0065,0.274531 -0.02294,0.557506 -0.104371,0.824537 -0.04041,0.127717 -0.09966,0.255796 -0.205081,0.342786 -0.05739,0.04885 -0.131622,0.07089 -0.204732,0.08224 -0.07599,0.01765 -0.12478,0.106415 -0.09501,0.17939 0.02852,0.07212 0.106021,0.104301 0.169296,0.139586 0.107386,0.05984 0.247396,0.07372 0.355783,0.009 0.131675,-0.07819 0.20837,-0.219515 0.266141,-0.356317 0.118801,-0.296522 0.160047,-0.617051 0.18233,-0.933665 0.03665,-0.597693 -0.01368,-1.198255 -0.114329,-1.787675 -0.03546,-0.198094 -0.07317,-0.396185 -0.124473,-0.590836 -0.01818,-0.06927 -0.09081,-0.11716 -0.161618,-0.101624 z"
         id="path1143-4" />
      <path
         style="fill:#000000;fill-opacity:1;fill-rule:nonzero;stroke:none;stroke-width:0.00468749;stroke-linecap:round;stroke-linejoin:round;stroke-miterlimit:4;stroke-dasharray:none;paint-order:stroke fill markers"
         d="m -92.11089,48.394208 c -0.07291,0.0035 -0.130898,0.07217 -0.126439,0.144233 0.0048,0.204575 0.03155,0.418425 0.144449,0.594243 0.08097,0.127027 0.203718,0.226745 0.342686,0.283723 0.07475,0.02466 0.160506,-0.03053 0.170836,-0.108148 0.0062,-0.07828 -0.01479,-0.155853 -0.03054,-0.232002 -0.06336,-0.243822 -0.212183,-0.456438 -0.386588,-0.634363 -0.03026,-0.03097 -0.07075,-0.04932 -0.114406,-0.04769 z"
         id="path1145-0" />
      <path
         style="fill:#ffcef6;fill-opacity:1;fill-rule:nonzero;stroke:none;stroke-width:0.00165728;stroke-linecap:round;stroke-linejoin:round;stroke-miterlimit:4;stroke-dasharray:none;paint-order:stroke fill markers"
         d="m -94.030921,44.715206 c -0.05309,0.0063 -0.09989,0.0475 -0.111982,0.09971 -0.0098,0.03557 -5.3e-4,0.07269 0.01363,0.105706 0.01339,0.03055 0.02209,0.06366 0.04117,0.09135 0.03259,0.04556 0.09567,0.06585 0.148556,0.0471 0.03898,-0.01196 0.07443,-0.03897 0.09013,-0.07738 0.01802,-0.03975 0.01278,-0.08719 -0.0093,-0.124261 -0.01611,-0.02965 -0.02897,-0.06133 -0.04838,-0.08902 -0.02791,-0.03835 -0.07682,-0.05915 -0.123814,-0.0532 z"
         id="path1114-7" />
      <path
         style="fill:#ffcef6;fill-opacity:1;fill-rule:nonzero;stroke:none;stroke-width:0.00165728;stroke-linecap:round;stroke-linejoin:round;stroke-miterlimit:4;stroke-dasharray:none;paint-order:stroke fill markers"
         d="m -97.222137,44.713198 c -0.04726,0.0032 -0.09002,0.03371 -0.111466,0.07551 -0.01669,0.03198 -0.03427,0.06366 -0.0485,0.09681 -0.0193,0.05259 -5.56e-4,0.116136 0.04472,0.149285 0.04067,0.03039 0.09784,0.04044 0.144776,0.01879 0.03601,-0.01566 0.06222,-0.04824 0.07488,-0.08489 0.01216,-0.03229 0.02739,-0.06369 0.03561,-0.09729 0.01125,-0.05305 -0.01409,-0.111059 -0.06062,-0.138901 -0.02369,-0.0145 -0.05172,-0.02114 -0.07941,-0.01931 z"
         id="path1116-2" />
      <path
         id="path1094-6-7"
         style="fill:none;stroke:#000000;stroke-width:0.528795;stroke-linecap:round;stroke-linejoin:round;stroke-miterlimit:4;stroke-dasharray:none;stroke-opacity:1"
         d="m -91.586775,49.441588 c 0.932208,2.181729 -0.596795,3.374283 -2.66683,3.10645 m 0,0 c 2.037623,-0.297534 2.609127,-1.358812 2.66683,-3.10645 m 1.222275,-9.878204 c 0.07224,-1.27663 0.196601,-2.536088 1.370929,-3.428407 -0.139016,1.190167 -0.567182,2.326742 -1.370929,3.428407 z m -0.739116,2.575942 c 0.43373,-0.518276 0.636252,-1.231824 0.525043,-2.201092 -0.559921,0.598007 -0.841886,1.303425 -0.525043,2.201092 z m -0.63489,7.149653 c -0.721618,-0.203212 -0.699385,-0.759075 -0.67346,-1.314545 0.40247,0.352764 0.747303,0.733188 0.67346,1.314545 z m -2.8136,0.40032 c -0.394303,-0.633184 -0.757306,-1.295675 -0.706919,-2.345376 0.585541,0.615568 0.759843,1.425408 0.706919,2.345376 z m 0.889101,-3.543839 c 0.225883,1.917258 0.85379,5.531435 -0.638866,4.508382 m 0.638866,-4.508382 c 1.234803,2.640276 0.838074,6.596202 -0.638866,4.508382 m -7.108879,-11.270993 c 0.0113,-1.299443 -0.13563,-2.544003 -1.38301,-3.423544 0.14319,1.189674 0.57539,2.32473 1.38301,3.423544 z m 0.74819,2.573328 c -0.43556,-0.516737 -0.6406,-1.229585 -0.53281,-2.199227 0.59697,0.585288 0.90291,1.281763 0.53281,2.199227 z m 4.942599,6.246269 c 0.250552,-0.287187 0.25577,-0.574374 0.02269,-0.861561 -0.143386,0.260021 -0.318515,0.513689 -0.02269,0.861561 z m 0.04725,1.593712 c -0.360747,-0.250366 -0.303778,-0.531909 -0.04537,-0.827549 0.408009,0.275853 0.341816,0.551696 0.04537,0.827549 z m 0.07191,1.873234 c 0.469454,-0.46946 0.164624,-0.889316 -0.06796,-1.315008 -0.188709,0.483382 -0.366011,0.965302 0.06796,1.315008 z m -0.95241,0.939656 c 0.289377,0.141729 0.585461,0.187006 0.908347,-0.152649 0.302358,0.235972 0.603641,0.433641 0.997055,0.205807 -0.244837,-0.560167 -0.666263,-0.385754 -1.00104,-0.637899 -0.271975,0.203078 -0.618917,0.126547 -0.904362,0.584741 z m -2.03484,0.08256 c 0.551686,0.288844 1.103372,0.255296 1.655068,-0.09065 -0.529228,-0.313749 -1.080251,-0.295508 -1.655068,0.09065 z m -1.008941,-2.936084 c -0.726548,1.452555 -0.241486,2.288686 0.748191,2.86807 -0.45342,-0.790887 -0.742164,-1.701701 -0.748191,-2.86807 z m 0.141015,-0.487862 c 0.533142,-0.363381 0.50087,-0.821057 0.437136,-1.348609 -0.340542,0.412867 -0.603447,0.786674 -0.437136,1.348609 z m 2.646898,0.433934 c 0.393218,-0.633864 0.755057,-1.296996 0.702846,-2.346598 -0.581114,0.60471 -0.776736,1.406979 -0.702846,2.346598 z m -1.14416,-3.448974 c -0.08878,1.885527 -0.51754,5.522724 0.940908,4.455154 m -0.940908,-4.455154 c -1.054268,2.717405 -0.392132,6.637671 0.940908,4.455154 m 1.280958,-8.304733 c 0.124427,0.445477 0.235409,0.879907 0.375402,1.258486 0.05593,-0.102854 0.105823,-0.199987 0.150331,-0.29206 0.409207,-0.846606 0.467159,-1.657001 0.137586,-2.122927 m 1.835642,0.729005 c 1.222088,-1.27277 1.737483,-2.692675 2.093236,-4.098681 0.339023,-1.43623 0.879898,-1.942294 1.410622,-2.495035 0.964109,-0.942141 1.344118,-1.890349 1.975852,-1.658589 0.731205,0.361622 0.431432,5.805476 -2.632197,8.144844 -0.658032,0.491307 -1.081858,0.962876 -1.439406,1.428842 -0.582206,0.853501 -1.384847,1.185215 -2.105724,1.507607 m -0.781227,-5.417536 c -0.212031,-0.511913 -0.559952,-0.766361 -1.020887,-0.799199 m 1.739732,6.089487 c 0.650891,-0.865506 0.848954,-1.831637 0.759999,-2.70174 -0.01588,-0.154592 -0.04074,-0.306165 -0.07369,-0.453586 -0.223503,-0.998634 -0.708369,-1.867336 -1.405177,-2.134962 -0.277362,-0.106524 -0.588282,-0.117818 -0.929673,-0.0039 m 0.791278,7.581401 c -0.161113,-0.540263 -0.47225,-0.776363 -0.882443,-0.837236 m -0.002,7.7522 c 0.752482,-0.01381 1.284321,-0.376813 1.907809,-0.704295 3.928493,1.469896 4.441482,-3.196727 2.553165,-4.518029 -1.339235,-0.813097 -1.803406,-1.538729 -2.279621,-2.869836 -0.125818,-0.395417 -0.252159,-0.717365 -0.37772,-0.982476 -0.02091,-0.04399 -0.04163,-0.08631 -0.06234,-0.127268 -0.433789,-0.854369 -0.85584,-1.060305 -1.21322,-1.307808 1.510093,1.691398 1.352394,3.078109 0.35597,3.594748 -0.244544,0.126794 -0.539602,0.20119 -0.872914,0.214813 -0.02062,9.86e-4 0.06224,-0.002 0,0 m 2.1983,-6.185209 c -0.579632,-0.223553 -1.083101,-0.08671 -1.54378,0.252721 -0.137833,0.101542 -0.271838,0.221195 -0.402904,0.354756 -0.370687,0.372878 -1.216623,0.07319 -1.162833,-1.056191 0.05445,-0.567636 0.546369,-0.918467 0.870783,-1.098104 0.04439,-0.02456 0.08552,-0.04597 0.12208,-0.06422 m -0.09046,3.020206 c -0.124427,0.445488 -0.23541,0.879918 -0.375393,1.258496 -0.05593,-0.102854 -0.105833,-0.199997 -0.15033,-0.292069 -0.409217,-0.846597 -0.507524,-1.448215 -0.266107,-1.96223 m -1.707141,0.568308 c -1.222068,-1.272771 -1.737483,-2.692665 -2.093217,-4.098681 -0.33901,-1.43623 -0.87989,-1.942284 -1.41063,-2.495026 -0.9641,-0.942141 -1.3441,-1.890349 -1.97586,-1.658589 -0.73119,0.361622 -0.43142,5.805477 2.63221,8.144835 0.65803,0.491317 1.081861,0.962876 1.4394,1.428851 0.582215,0.853502 1.384857,1.185216 2.105734,1.507608 m -0.623951,-3.282585 c 0.39299,-0.377641 0.901786,-0.459357 1.633455,-0.114721 0.03245,0.01529 0.0654,0.03147 0.0987,0.04843 m -0.326969,-2.068635 c 0.212021,-0.511914 0.558413,-0.766351 1.019338,-0.799199 m -1.738193,6.089487 c -0.6509,-0.865496 -0.848954,-1.831637 -0.760018,-2.70174 0.01588,-0.154592 0.04074,-0.306166 0.07369,-0.453586 0.223513,-0.998634 0.708379,-1.867336 1.405187,-2.134962 0.277352,-0.106514 0.647063,-0.05366 0.988463,0.05997 m -0.850048,7.517224 c 0.161092,-0.540273 0.47075,-0.776363 0.880953,-0.837245 m -0.002,7.752209 c -0.752482,-0.01381 -1.279754,-0.376813 -1.903231,-0.704305 -3.92848,1.469916 -4.44148,-3.196726 -2.55315,-4.518038 1.339229,-0.813078 1.80338,-1.538709 2.279605,-2.869826 0.125818,-0.395408 0.252159,-0.717366 0.377711,-0.982486 0.02081,-0.04399 0.04163,-0.08631 0.06234,-0.127239 0.433798,-0.854379 0.855868,-1.060324 1.213229,-1.307827 -1.510073,1.691407 -1.352394,3.078119 -0.35596,3.594757 0.244524,0.126795 0.539583,0.201181 0.872895,0.214823 0.02062,9.86e-4 -0.06224,-0.002 0,0"
         sodipodi:nodetypes="ccccccccccccccccccccccccccccccccccccccccccccccccccccccccccccccccccccccccsccccccccccsccccccccccccccccccccscccccccccccccccccccc" />
    </g>
  </g>
</svg>
